<?xml version="1.0" standalone="no"?>
<!DOCTYPE svg PUBLIC "-//W3C//DTD SVG 20010904//EN"
 "http://www.w3.org/TR/2001/REC-SVG-20010904/DTD/svg10.dtd">
<svg version="1.0" xmlns="http://www.w3.org/2000/svg"
 width="1024.000000pt" height="1024.000000pt" viewBox="0 0 1024.000000 1024.000000"
 preserveAspectRatio="xMidYMid meet">
<metadata>
Created by potrace 1.11, written by Peter Selinger 2001-2013
</metadata>
<g transform="translate(0.000000,1024.000000) scale(0.100000,-0.100000)"
fill="#000000" stroke="none">
<path d="M4975 10229 c-107 -22 -147 -31 -180 -43 -89 -33 -183 -78 -255 -123
-47 -29 -94 -59 -105 -66 -11 -6 -24 -17 -30 -23 -5 -5 -30 -26 -55 -46 -161
-127 -369 -379 -522 -630 -35 -57 -70 -117 -78 -133 -8 -17 -17 -32 -21 -35
-14 -13 -195 -393 -230 -484 -11 -28 -24 -60 -29 -71 -17 -37 -72 -180 -97
-255 -38 -114 -45 -128 -63 -125 -8 2 -37 9 -65 15 -27 6 -61 13 -75 15 -32 6
-65 13 -65 15 0 4 -374 66 -455 75 -82 10 -131 15 -171 19 -20 1 -41 6 -47 10
-6 3 -13 2 -17 -4 -4 -6 -11 -7 -17 -4 -6 4 -34 9 -62 10 -71 4 -373 4 -421 0
-22 -2 -83 -7 -135 -11 -52 -4 -104 -9 -115 -11 -11 -3 -38 -7 -60 -10 -22 -3
-51 -7 -65 -10 -34 -5 -211 -44 -230 -50 -8 -3 -17 -5 -20 -6 -3 0 -12 -4 -21
-9 -9 -4 -27 -10 -40 -13 -23 -4 -62 -19 -139 -52 -52 -23 -190 -94 -204 -104
-6 -5 -42 -33 -81 -62 -78 -58 -182 -162 -222 -223 -15 -22 -32 -44 -38 -50
-17 -16 -84 -161 -108 -235 -57 -175 -63 -432 -16 -640 6 -25 13 -56 15 -69 9
-47 67 -219 105 -314 49 -121 136 -294 204 -407 28 -47 58 -96 66 -110 24 -41
188 -280 199 -290 3 -3 38 -48 77 -100 40 -52 86 -111 103 -130 17 -19 38 -44
48 -56 48 -58 119 -140 137 -158 12 -12 38 -40 59 -63 l38 -43 -43 -46 c-24
-25 -60 -63 -80 -84 -34 -36 -172 -196 -215 -249 -10 -13 -24 -28 -30 -35 -5
-6 -46 -58 -90 -116 -43 -58 -82 -106 -86 -108 -5 -2 -8 -8 -8 -13 0 -10 -34
-60 -62 -93 -10 -11 -18 -25 -18 -32 0 -7 -4 -14 -8 -16 -14 -5 -133 -207
-202 -343 -83 -163 -177 -404 -196 -505 -2 -14 -9 -47 -15 -74 -12 -49 -14
-65 -26 -166 -14 -117 -7 -282 16 -396 21 -107 92 -283 128 -322 7 -7 13 -19
13 -27 0 -7 3 -15 8 -17 4 -1 25 -25 46 -52 242 -301 623 -469 1181 -522 240
-22 509 -19 795 10 19 2 64 7 100 10 36 4 76 8 90 11 30 5 92 13 142 19 21 3
53 7 70 10 18 3 51 8 73 11 22 3 69 10 105 16 36 6 79 13 95 15 17 2 39 6 51
8 18 4 24 -5 43 -57 12 -34 23 -66 25 -72 2 -5 6 -19 10 -30 5 -11 17 -45 28
-75 11 -30 24 -64 28 -75 48 -111 94 -231 92 -237 -1 -5 2 -8 8 -8 5 0 10 -5
10 -11 0 -6 31 -76 70 -155 38 -80 69 -147 69 -151 0 -3 3 -9 8 -12 4 -3 21
-31 37 -61 70 -131 265 -430 287 -438 5 -2 9 -10 9 -18 0 -8 4 -14 8 -14 4 0
25 -23 46 -50 51 -67 227 -243 294 -293 28 -22 52 -44 52 -49 0 -5 4 -7 9 -4
4 3 16 -3 26 -14 10 -11 22 -20 27 -20 5 0 28 -13 51 -28 39 -26 169 -93 192
-98 6 -1 37 -12 70 -23 55 -20 80 -22 321 -21 257 1 272 3 354 37 14 6 28 9
33 6 4 -2 7 1 7 8 0 7 3 10 6 6 10 -9 201 94 259 141 6 4 37 28 70 54 33 25
98 83 145 129 84 83 132 138 260 296 6 7 10 15 10 18 0 5 77 115 100 142 5 7
10 14 10 17 0 2 22 40 48 83 27 43 65 109 85 147 20 38 41 74 47 81 5 6 8 14
5 17 -3 3 1 11 10 18 8 7 15 17 15 23 0 6 15 40 34 76 19 36 46 95 61 131 15
36 35 83 45 105 32 70 91 219 95 239 2 10 10 25 17 34 7 8 12 16 10 16 -6 2
10 60 19 71 4 6 7 14 7 18 0 4 7 28 17 53 17 44 18 45 54 41 20 -3 47 -8 61
-11 46 -11 234 -44 285 -51 98 -13 115 -15 153 -21 125 -18 474 -35 692 -34
189 2 321 11 475 34 11 2 40 7 65 10 25 4 63 12 85 18 22 5 48 12 58 14 110
21 275 79 399 139 74 37 192 107 208 125 3 3 21 17 40 32 63 47 162 150 196
203 10 17 22 32 25 35 21 15 107 209 110 247 0 5 5 13 10 19 9 11 13 32 24
124 2 14 4 25 5 25 9 0 13 214 5 290 -10 89 -14 121 -19 145 -3 14 -12 52 -20
85 -16 71 -77 268 -86 275 -3 3 -12 25 -20 50 -18 57 -149 322 -164 332 -6 5
-7 8 -1 8 7 0 7 3 0 8 -6 4 -20 28 -33 53 -12 26 -29 52 -37 59 -8 7 -15 16
-15 21 0 8 -67 117 -80 129 -3 3 -18 25 -34 50 -32 50 -219 301 -253 340 -29
34 -51 60 -93 111 -38 47 -98 114 -172 193 -27 28 -48 53 -48 56 0 3 24 30 53
61 114 123 194 216 290 339 37 47 75 94 85 105 10 11 21 28 25 38 3 9 11 17
17 17 5 0 10 5 10 10 0 6 17 34 38 63 66 90 132 187 132 194 0 3 11 20 23 37
13 17 26 36 28 41 10 26 84 151 92 156 5 3 8 9 8 12 0 4 27 64 60 134 33 71
64 137 68 148 57 144 105 301 104 338 0 9 3 17 7 17 7 0 20 72 26 140 1 14 3
25 4 25 4 0 9 92 9 175 0 87 -4 142 -14 195 -3 17 -7 41 -8 55 -2 14 -8 35
-15 48 -7 12 -10 22 -7 22 6 0 -28 88 -66 164 -58 120 -185 267 -310 359 -35
26 -70 52 -76 57 -47 39 -341 165 -433 185 -8 2 -35 8 -60 15 -41 10 -132 28
-235 45 -208 36 -634 46 -865 20 -36 -4 -85 -9 -110 -10 -53 -4 -129 -13 -185
-22 -22 -3 -51 -7 -65 -8 -53 -6 -148 -19 -220 -30 -14 -3 -43 -7 -65 -10
-138 -21 -172 -26 -187 -31 -11 -3 -19 3 -23 18 -11 37 -76 212 -86 230 -5 10
-9 22 -9 28 0 6 -10 32 -21 58 -12 26 -28 62 -35 80 -16 37 -39 89 -66 152
-71 160 -206 410 -306 565 -59 91 -84 126 -155 220 -84 112 -223 259 -326 345
-29 25 -59 51 -67 58 -7 6 -16 12 -20 12 -4 0 -17 9 -28 19 -26 24 -67 48
-178 106 -109 56 -198 87 -318 111 -46 9 -274 11 -315 3z m275 -322 c8 -2 29
-7 45 -11 106 -26 238 -91 345 -169 78 -58 231 -209 298 -296 31 -40 62 -78
67 -85 6 -6 23 -31 40 -56 16 -25 32 -47 35 -50 3 -3 12 -16 20 -30 8 -14 38
-65 68 -114 59 -98 184 -342 227 -446 15 -36 34 -81 42 -100 46 -108 139 -364
148 -408 2 -14 -1 -22 -11 -22 -22 0 -21 0 -66 -16 -23 -8 -53 -16 -68 -19
-14 -3 -54 -14 -89 -25 -34 -11 -81 -24 -104 -30 -23 -6 -49 -14 -57 -17 -8
-4 -17 -7 -20 -8 -3 0 -38 -11 -77 -24 -40 -12 -75 -22 -78 -22 -3 1 -19 -6
-35 -14 -17 -9 -30 -12 -30 -8 0 4 -5 2 -12 -5 -7 -7 -22 -12 -33 -12 -12 0
-25 -3 -29 -7 -3 -4 -12 -8 -19 -9 -7 -1 -29 -9 -49 -18 -21 -9 -38 -13 -38
-10 0 4 -6 2 -12 -4 -7 -5 -53 -24 -103 -42 -49 -18 -108 -39 -130 -47 -22 -8
-46 -19 -52 -25 -7 -6 -13 -8 -13 -5 0 3 -67 -23 -150 -58 -82 -34 -151 -60
-155 -57 -3 3 -5 0 -5 -6 0 -15 -31 -15 -67 0 -15 6 -30 12 -33 13 -3 0 -16 7
-30 15 -14 7 -26 13 -28 12 -1 -1 -19 5 -40 14 -20 8 -59 25 -87 36 -27 11
-63 25 -80 33 -16 7 -46 18 -65 25 -19 7 -44 16 -55 21 -49 21 -365 131 -515
178 -91 29 -172 55 -180 58 -17 7 -25 9 -60 16 -56 13 -246 70 -253 77 -4 4
-4 18 2 31 14 35 24 63 26 74 10 45 136 366 184 470 52 112 115 240 121 245 3
3 14 23 25 45 10 22 34 64 52 93 18 29 33 54 33 57 0 11 140 209 206 291 74
92 232 249 282 282 15 9 35 24 46 34 54 49 269 142 356 154 25 3 46 7 48 9 4
4 194 -3 212 -8z m-2935 -1882 c88 -3 180 -8 205 -10 25 -3 70 -7 100 -10 30
-2 66 -6 80 -9 14 -3 48 -7 75 -11 84 -10 259 -42 340 -62 11 -2 30 -6 42 -8
41 -6 42 -13 11 -128 -16 -61 -32 -123 -34 -137 -3 -14 -11 -46 -19 -72 -7
-25 -11 -49 -8 -51 3 -3 1 -12 -3 -19 -10 -16 -15 -35 -17 -65 0 -13 -4 -23
-8 -23 -4 0 -6 -8 -4 -17 1 -10 -1 -27 -6 -39 -4 -11 -10 -38 -14 -60 -4 -21
-8 -43 -9 -49 -5 -20 -50 -269 -60 -335 -3 -19 -8 -46 -11 -60 -2 -14 -7 -41
-9 -60 -3 -19 -7 -48 -10 -65 -2 -16 -7 -57 -11 -90 -3 -32 -8 -62 -10 -65 -2
-4 -5 -27 -6 -53 -2 -26 -5 -47 -9 -47 -3 0 -5 -15 -4 -34 2 -42 1 -43 -66
-91 -30 -22 -61 -45 -68 -52 -8 -7 -35 -27 -60 -45 -26 -17 -49 -34 -52 -38
-3 -3 -27 -22 -55 -42 -27 -20 -109 -83 -181 -140 -72 -56 -146 -114 -164
-128 -18 -14 -42 -33 -54 -43 -11 -10 -32 -28 -46 -40 -14 -12 -52 -44 -85
-72 -33 -27 -62 -52 -65 -55 -3 -3 -21 -18 -40 -34 -47 -38 -167 -147 -247
-223 -36 -35 -69 -60 -74 -57 -6 3 -31 28 -57 56 -26 28 -52 56 -57 62 -45 47
-212 248 -260 312 -33 43 -65 85 -72 92 -7 7 -20 26 -30 42 -9 17 -21 30 -25
30 -4 0 -8 4 -8 10 0 8 -56 96 -70 110 -3 3 -10 14 -17 25 -6 11 -35 58 -63
105 -110 181 -254 511 -273 626 -3 16 -10 50 -16 76 -28 119 -30 283 -6 411 4
20 11 40 16 43 5 3 7 10 4 15 -8 12 51 135 89 184 27 36 69 78 131 134 57 52
248 157 310 171 6 1 27 11 48 21 20 11 37 17 37 15 0 -3 25 4 55 14 30 10 71
21 91 24 20 4 39 8 43 10 3 3 27 8 51 11 25 4 54 9 65 11 11 2 40 6 65 9 25 3
59 8 75 10 17 3 100 8 185 11 85 3 156 7 158 9 2 2 9 2 15 0 7 -2 84 -7 172
-10z m5920 1 c77 -3 167 -8 200 -11 66 -7 249 -39 305 -55 72 -19 176 -51 195
-59 11 -5 38 -17 60 -26 73 -31 173 -83 185 -95 3 -3 24 -18 46 -33 52 -35
162 -146 191 -192 44 -69 105 -216 102 -243 -1 -4 0 -9 1 -12 12 -31 16 -177
7 -270 -7 -75 -39 -206 -77 -315 -17 -49 -32 -94 -34 -100 -20 -64 -181 -377
-198 -383 -4 -2 -8 -9 -8 -15 0 -7 -16 -36 -35 -64 -19 -29 -35 -57 -35 -62 0
-5 -4 -11 -8 -13 -5 -1 -33 -39 -62 -83 -29 -44 -56 -82 -59 -85 -3 -3 -29
-37 -57 -76 -58 -80 -49 -68 -187 -234 -57 -69 -127 -150 -155 -180 -29 -30
-52 -58 -52 -62 0 -12 -20 -9 -34 5 -76 75 -282 262 -361 327 -55 46 -107 89
-115 97 -42 38 -81 70 -106 88 -15 11 -46 35 -68 53 -55 45 -61 49 -144 112
-39 30 -72 58 -72 62 0 5 -4 8 -9 8 -8 0 -85 55 -211 152 -14 10 -52 38 -84
63 -33 24 -61 52 -62 62 -4 26 -15 113 -19 148 -2 17 -6 44 -9 60 -3 17 -8 55
-11 85 -3 30 -7 66 -10 80 -9 43 -17 88 -40 237 -2 13 -6 26 -8 30 -3 5 -8 31
-11 58 -7 57 -14 102 -22 127 -6 19 -14 59 -18 93 -2 11 -6 27 -10 35 -3 8 -8
29 -10 45 -6 37 -13 71 -32 149 -8 34 -16 68 -18 76 -2 8 -9 35 -16 60 -7 25
-14 52 -16 60 -27 108 -32 136 -26 141 6 5 121 33 129 31 1 0 22 6 45 13 24 6
51 11 61 9 9 -1 17 2 17 6 0 5 8 8 18 8 9 0 31 2 47 6 28 5 96 18 170 31 17 2
41 7 55 10 14 3 48 7 75 10 28 2 64 7 80 10 50 9 115 14 235 21 63 3 117 7
118 9 2 2 9 2 15 0 7 -2 75 -6 152 -9z m-4595 -210 c130 -34 316 -87 330 -93
8 -3 20 -7 25 -8 33 -8 439 -145 490 -166 17 -7 35 -13 40 -14 15 -4 199 -75
203 -79 2 -2 -21 -16 -50 -30 -29 -14 -77 -39 -105 -56 -29 -16 -53 -26 -53
-22 0 4 -4 3 -8 -3 -4 -5 -25 -19 -47 -30 -22 -11 -42 -22 -45 -25 -3 -3 -39
-22 -80 -43 -123 -61 -353 -182 -385 -202 -16 -10 -46 -28 -65 -40 -19 -12
-99 -62 -178 -111 -78 -49 -155 -97 -170 -106 -15 -10 -34 -21 -42 -25 -8 -3
-17 -9 -20 -12 -9 -10 -69 -51 -75 -51 -5 0 -18 -9 -48 -36 -7 -6 -22 -16 -34
-22 -20 -11 -21 -10 -18 31 3 34 22 151 60 372 1 11 8 49 15 85 7 36 14 74 15
85 6 38 15 80 24 113 5 17 7 32 5 32 -3 0 -2 6 3 13 4 6 8 21 9 32 1 11 5 31
9 45 3 14 8 34 10 46 11 49 64 242 75 269 6 17 11 30 11 30 0 0 2 10 6 23 3
15 11 21 22 18 9 -3 41 -12 71 -20z m3056 -43 c-3 -3 -1 -13 4 -23 5 -9 11
-28 14 -41 3 -13 12 -51 21 -84 9 -33 18 -68 20 -78 2 -10 6 -26 9 -35 3 -9 8
-28 10 -42 3 -14 10 -45 16 -70 7 -25 13 -54 14 -65 2 -11 8 -39 15 -63 7 -24
14 -56 16 -72 2 -16 6 -37 9 -47 3 -10 8 -34 11 -53 3 -19 12 -66 20 -105 24
-117 66 -377 63 -386 -2 -5 -39 15 -83 44 -86 58 -293 187 -299 187 -2 0 -33
16 -68 36 -34 20 -110 61 -168 91 -57 29 -107 58 -110 62 -3 5 -36 32 -73 60
-131 100 -331 211 -536 296 l-94 39 39 17 c21 10 47 18 57 18 9 1 17 6 17 13
0 6 2 9 6 6 3 -3 44 10 92 29 80 31 193 72 217 78 6 1 19 5 30 9 11 5 32 12
47 18 15 6 28 9 30 7 2 -1 13 3 26 10 13 7 33 14 44 16 12 3 67 19 122 36 56
18 108 33 116 33 9 1 21 5 28 10 6 4 22 9 34 12 13 3 32 7 43 9 11 3 50 13 88
24 37 11 69 20 72 21 3 0 10 2 17 5 33 11 54 10 61 -3 5 -7 6 -16 3 -19z
m-1322 -637 c135 -68 246 -121 246 -119 0 3 6 0 14 -6 8 -7 115 -62 237 -123
123 -61 235 -119 249 -129 20 -13 248 -156 324 -202 11 -7 127 -83 258 -169
131 -87 241 -158 244 -158 8 0 29 -24 31 -37 2 -7 5 -50 9 -95 3 -46 7 -101 9
-123 2 -22 6 -76 10 -120 3 -44 8 -100 10 -125 16 -186 27 -537 22 -688 -1
-30 1 -56 6 -59 4 -2 4 -10 0 -16 -4 -6 -8 -45 -9 -87 -2 -86 -14 -315 -19
-375 -2 -22 -7 -74 -10 -115 -3 -41 -7 -97 -10 -125 -3 -27 -7 -81 -10 -120
-2 -38 -5 -70 -5 -70 -1 0 -3 -10 -4 -22 -2 -13 -5 -24 -7 -26 -2 -2 -69 -46
-149 -98 -80 -51 -149 -98 -155 -102 -5 -4 -53 -36 -105 -70 -52 -34 -97 -65
-98 -69 -2 -5 -8 -6 -13 -2 -5 3 -9 0 -9 -5 0 -6 -4 -11 -9 -11 -5 0 -67 -37
-139 -82 -154 -98 -225 -142 -232 -143 -3 0 -45 -25 -95 -54 -184 -110 -479
-259 -685 -346 -36 -15 -77 -33 -91 -41 -14 -7 -28 -11 -31 -8 -3 2 -11 -2
-17 -10 -10 -12 -88 24 -514 237 -348 175 -556 286 -677 362 -96 60 -176 113
-178 117 -2 4 -8 8 -12 8 -5 0 -83 49 -172 108 -90 59 -187 123 -215 142 -29
18 -53 37 -53 42 0 5 -3 7 -8 4 -14 -9 -46 24 -48 52 -2 15 -5 52 -8 82 -3 30
-8 87 -11 125 -3 39 -7 93 -9 120 -21 235 -27 364 -29 547 -1 82 -5 148 -9
148 -4 0 -5 6 -2 13 9 24 10 97 1 97 -4 0 -5 5 -1 12 4 6 8 68 10 137 3 141
20 456 24 456 1 0 3 29 5 65 2 36 6 88 9 115 9 81 18 189 17 209 0 20 36 55
57 56 6 0 12 4 12 8 0 5 19 19 43 32 23 13 44 26 47 29 11 13 90 61 100 61 5
0 10 4 10 8 0 4 42 35 93 67 50 33 98 65 105 72 8 7 17 11 22 8 5 -3 10 -1 12
4 3 7 89 67 141 96 9 5 73 45 141 87 68 42 150 92 182 109 32 18 61 35 64 38
3 3 21 14 40 25 178 95 243 128 360 186 131 65 291 138 340 155 3 1 21 9 40
18 19 9 40 16 47 17 6 0 122 -56 257 -124z m-2469 -1238 c-2 -29 -6 -87 -10
-128 -3 -41 -8 -177 -10 -302 -2 -126 -7 -233 -10 -238 -3 -5 -1 -11 5 -15 6
-4 8 -10 5 -15 -5 -7 -6 -83 -4 -160 1 -8 0 -26 0 -40 -3 -52 8 -448 13 -524
8 -102 15 -157 22 -167 12 -20 -22 -6 -70 28 -28 21 -53 40 -56 43 -3 3 -21
17 -40 30 -19 14 -42 30 -50 37 -8 7 -62 49 -120 94 -58 46 -107 86 -110 89
-3 3 -15 13 -27 21 -13 9 -46 36 -75 62 -29 25 -64 55 -78 67 -14 12 -52 45
-84 73 -57 50 -76 68 -220 205 l-66 62 81 78 c153 147 198 189 256 240 32 28
76 67 98 88 22 20 85 72 140 116 55 44 112 90 127 101 15 12 52 40 83 62 30
22 55 43 55 47 0 4 5 8 10 8 11 0 53 28 103 68 16 12 30 22 32 22 2 0 2 -24 0
-52z m4463 22 c12 -11 26 -20 32 -20 5 0 10 -4 10 -8 0 -4 43 -41 96 -82 53
-41 107 -85 120 -97 13 -13 27 -23 33 -23 5 0 11 -4 13 -8 2 -4 50 -46 108
-92 58 -47 113 -92 124 -100 10 -8 39 -34 65 -57 25 -23 49 -43 53 -43 4 0 13
-6 21 -14 8 -8 36 -34 63 -57 27 -23 86 -77 131 -120 l83 -79 -34 -32 c-162
-158 -226 -218 -387 -360 -59 -53 -76 -67 -126 -108 -51 -43 -260 -204 -282
-218 -15 -9 -28 -19 -31 -23 -3 -3 -20 -14 -37 -24 -18 -11 -33 -23 -33 -27 0
-4 -5 -8 -12 -8 -6 0 -20 -8 -31 -17 -18 -17 -19 -16 -12 57 3 41 8 91 10 110
11 90 19 746 9 762 -3 4 0 8 6 8 6 0 8 4 5 10 -3 5 -8 110 -10 232 -5 224 -8
294 -20 401 -7 61 -1 68 33 37z m-5589 -1104 c90 -88 190 -178 272 -246 23
-19 63 -53 89 -75 25 -22 66 -56 90 -75 25 -19 55 -45 68 -57 12 -13 26 -23
30 -23 4 0 21 -12 37 -28 17 -15 72 -58 123 -97 50 -38 92 -73 92 -77 0 -5 5
-8 11 -8 8 0 82 -52 99 -70 3 -3 35 -27 72 -53 36 -26 73 -54 82 -62 8 -8 18
-15 23 -15 4 0 25 -16 46 -35 25 -23 37 -43 38 -62 1 -15 3 -39 5 -53 2 -14 5
-43 8 -64 3 -22 7 -53 10 -70 3 -17 8 -53 11 -81 6 -47 39 -253 52 -320 3 -16
7 -39 8 -50 8 -59 28 -164 49 -256 8 -36 16 -79 19 -95 5 -33 73 -304 87 -349
5 -16 11 -41 14 -55 3 -14 8 -35 12 -47 3 -13 2 -23 -2 -24 -5 0 -18 -3 -29
-5 -11 -3 -33 -7 -50 -10 -16 -2 -55 -8 -85 -14 -67 -12 -102 -17 -160 -24
-25 -3 -55 -8 -67 -10 -11 -3 -43 -8 -70 -12 -26 -3 -56 -8 -65 -10 -9 -1 -48
-6 -85 -9 -37 -4 -77 -9 -88 -11 -130 -25 -664 -24 -780 1 -11 3 -38 7 -60 9
-22 2 -47 7 -55 10 -8 3 -31 7 -50 10 -19 3 -69 15 -110 27 -41 11 -87 23
-103 26 -15 3 -30 9 -33 14 -3 5 -12 9 -20 9 -27 0 -182 78 -267 134 -86 57
-187 155 -234 229 -15 23 -28 44 -29 47 0 3 -12 30 -26 60 -14 30 -28 69 -32
85 -3 17 -9 41 -12 55 -4 14 -6 77 -7 140 0 104 3 146 18 220 3 14 7 34 9 46
13 65 106 325 126 349 6 7 7 15 3 18 -3 4 0 7 7 7 7 0 10 3 7 7 -4 3 2 20 12
37 11 17 33 58 51 91 61 117 205 346 223 353 4 2 7 8 7 13 0 14 204 278 284
367 17 18 37 42 46 53 8 11 52 59 97 107 45 48 82 90 83 95 1 20 29 1 99 -67z
m6831 13 c3 -4 39 -44 80 -90 95 -105 111 -122 134 -151 11 -13 31 -37 45 -54
67 -80 103 -127 190 -248 51 -72 98 -141 104 -153 6 -13 14 -23 19 -23 4 0 8
-4 8 -9 0 -5 23 -46 50 -91 28 -45 50 -84 50 -86 0 -3 12 -26 27 -52 16 -26
28 -49 29 -52 0 -3 14 -34 31 -70 50 -106 86 -194 97 -235 3 -15 27 -88 33
-105 3 -8 7 -22 8 -30 1 -8 8 -42 14 -75 23 -112 30 -250 17 -335 -7 -47 -13
-82 -16 -90 -1 -3 -2 -8 -1 -12 2 -15 -59 -152 -83 -186 -50 -72 -159 -176
-231 -219 -56 -34 -151 -86 -160 -87 -5 -1 -20 -8 -32 -14 -13 -7 -23 -9 -23
-5 0 4 -4 3 -8 -3 -6 -8 -102 -44 -162 -60 -86 -22 -246 -54 -256 -50 -7 3
-15 2 -18 -2 -24 -23 -392 -39 -661 -28 -126 5 -303 20 -350 30 -11 2 -42 7
-70 10 -89 11 -140 18 -160 23 -11 2 -30 6 -42 9 -61 12 -79 15 -88 18 -5 1
-40 8 -77 16 -75 15 -73 10 -42 116 8 28 17 60 19 70 2 11 11 43 19 72 8 28
12 52 9 52 -3 0 0 7 7 15 7 9 10 18 7 22 -4 3 -2 14 4 25 6 10 12 33 14 51 2
18 19 109 39 202 39 187 37 179 65 350 11 66 23 136 26 155 4 19 8 49 10 65 1
17 6 48 9 71 4 23 9 59 11 80 3 21 7 55 10 74 4 19 7 50 9 69 2 18 9 37 17 42
13 7 360 266 384 286 6 5 48 39 95 76 47 36 90 70 95 75 6 4 36 28 68 52 31
25 57 48 57 52 0 5 5 8 10 8 6 0 21 10 34 23 13 12 42 38 66 57 23 19 52 44
64 55 13 11 38 32 56 48 41 33 157 138 241 218 62 59 72 62 99 28z m-5260
-1249 c7 -8 221 -150 225 -150 3 0 42 -24 87 -53 197 -127 505 -307 561 -328
15 -6 27 -15 27 -20 0 -5 8 -9 18 -9 10 0 22 -4 27 -9 6 -5 89 -49 185 -97 96
-49 178 -93 181 -98 4 -4 12 -5 18 -2 6 4 11 3 11 -2 0 -5 10 -13 23 -16 20
-6 17 -9 -23 -27 -120 -54 -475 -181 -660 -236 -151 -44 -253 -73 -350 -99
-52 -13 -102 -27 -111 -30 -12 -3 -19 7 -29 43 -6 27 -14 55 -17 63 -3 8 -7
22 -8 30 -1 8 -14 62 -29 119 -15 58 -31 123 -36 145 -4 23 -11 52 -14 66 -4
14 -8 34 -11 45 -8 36 -45 216 -50 248 -3 18 -8 39 -10 47 -2 8 -7 30 -10 48
-3 17 -8 47 -11 65 -3 17 -7 43 -9 57 -2 14 -8 52 -14 85 -6 33 -14 79 -17
103 -6 43 -6 43 18 30 12 -7 25 -15 28 -18z m3586 -17 c-4 -27 -8 -59 -11 -73
-6 -31 -13 -74 -20 -125 -4 -22 -8 -47 -10 -55 -4 -15 -16 -92 -19 -120 -1 -9
-5 -20 -8 -25 -3 -6 -4 -19 -2 -29 1 -11 0 -25 -4 -30 -3 -6 -8 -20 -9 -31 -5
-30 -11 -67 -17 -95 -7 -32 -25 -119 -30 -145 -2 -11 -9 -40 -16 -65 -7 -25
-13 -52 -14 -60 -2 -17 -17 -73 -47 -175 -12 -38 -23 -78 -24 -87 -9 -45 -15
-46 -110 -22 -242 60 -546 158 -971 312 -126 46 -124 44 -57 79 60 30 343 178
468 244 39 20 102 53 140 73 39 20 113 63 165 96 52 33 102 63 110 67 8 4 39
23 70 42 73 47 86 56 142 88 27 16 48 31 48 36 0 4 6 7 14 7 7 0 19 7 26 15 7
8 16 13 20 10 5 -3 10 -1 12 4 3 8 148 111 156 111 2 0 1 -21 -2 -47z m-1736
-971 c25 -12 85 -37 133 -57 48 -20 100 -41 115 -47 15 -6 29 -12 32 -12 3 -1
24 -9 45 -18 66 -27 344 -128 355 -128 6 0 18 -4 28 -9 9 -5 35 -14 57 -20 22
-7 49 -16 60 -20 26 -11 214 -70 240 -76 11 -2 52 -14 90 -25 39 -12 104 -30
145 -41 41 -11 79 -24 83 -28 5 -5 2 -25 -7 -45 -8 -20 -13 -36 -11 -36 2 0
-2 -12 -10 -27 -8 -15 -12 -30 -9 -35 3 -4 1 -8 -4 -8 -5 0 -9 -6 -9 -12 0
-13 -87 -242 -119 -313 -10 -22 -18 -42 -19 -45 -18 -58 -188 -389 -251 -487
-19 -29 -34 -58 -34 -63 0 -6 -4 -10 -8 -10 -5 0 -15 -12 -23 -27 -36 -70
-173 -239 -278 -344 -224 -224 -425 -327 -651 -334 -206 -7 -394 64 -590 220
-27 21 -225 220 -245 245 -6 8 -25 33 -41 55 -16 22 -39 51 -52 65 -12 14 -25
33 -28 43 -3 9 -10 17 -15 17 -5 0 -9 6 -9 13 0 7 -9 23 -20 35 -11 12 -20 23
-20 25 0 2 -26 46 -57 98 -47 79 -213 399 -213 412 0 3 -10 26 -22 53 -12 27
-23 54 -24 59 -2 6 -26 66 -54 135 -28 69 -52 135 -54 147 -3 12 -9 30 -14 40
-6 10 -10 20 -10 23 0 3 -6 18 -12 34 -26 70 -29 67 110 105 19 5 50 14 68 19
17 6 32 8 32 5 0 -3 6 -1 13 4 10 9 33 16 87 28 14 3 145 44 275 86 33 11 67
22 75 24 8 2 34 10 58 19 23 8 42 12 42 8 0 -4 4 -2 8 3 6 8 133 58 177 69 6
2 23 8 38 14 16 7 31 12 34 12 3 0 19 6 36 14 18 8 82 35 142 60 61 24 139 58
175 75 71 33 93 34 160 3z"/>
<path d="M5029 5916 c-2 -2 -22 -6 -44 -9 -98 -14 -262 -80 -334 -134 -51 -38
-159 -150 -190 -195 -44 -66 -96 -181 -117 -258 -17 -63 -25 -294 -12 -345 3
-11 8 -38 13 -60 4 -22 11 -44 15 -50 3 -5 15 -32 25 -60 57 -154 205 -314
366 -395 121 -62 207 -82 358 -85 175 -4 310 35 456 131 126 82 232 207 284
334 12 30 26 64 31 75 42 91 48 336 11 470 -50 179 -165 342 -311 442 -63 42
-162 93 -182 93 -9 0 -19 4 -22 9 -3 5 -23 12 -43 15 -21 3 -49 8 -63 11 -30
7 -236 16 -241 11z m187 -330 c206 -42 370 -236 380 -446 4 -89 -11 -154 -55
-237 -120 -225 -372 -317 -608 -222 -18 8 -33 17 -33 21 0 4 -6 8 -13 8 -7 0
-28 12 -47 28 -70 57 -112 110 -151 189 -35 72 -41 93 -44 165 -5 100 10 164
58 250 52 93 113 152 207 202 97 52 194 66 306 42z"/>
</g>
</svg>
